<svg width="32"
    height="32"
    viewBox="0 0 32 32"
    fill="none"
    xmlns="http://www.w3.org/2000/svg">
    <path
        fill-rule="evenodd"
        clip-rule="evenodd"
        d="M3 7.94754H3.00138C3.00046 7.96502 3 7.98258 3 8.00019V16.0002C3 16.5525 3.44772 17.0002 4 17.0002C4.55228 17.0002 5 16.5525 5 16.0002V9.30213C8.20532 10.0865 13.6017 10.9626 19.9359 11.4015C21.9092 11.5383 23.2983 11.6363 24.3333 11.8348C25.3532 12.0304 25.8632 12.2961 26.1906 12.6493C26.5256 13.0106 26.7508 13.5284 26.8732 14.5109C26.9982 15.5147 27 16.8435 27 18.7397V21.4245C27 23.381 26.9975 24.7382 26.8467 25.7611C26.7017 26.745 26.438 27.274 26.0138 27.6617C25.5797 28.0584 25.0525 28.2656 24.1411 28.3194C23.1801 28.3762 21.9313 28.2571 20.1114 28.0793C19.2504 27.9952 18.3646 27.8952 17.4634 27.777C16.9158 27.7052 16.4136 28.0909 16.3418 28.6385C16.27 29.1861 16.6557 29.6882 17.2033 29.76C18.1278 29.8812 19.0355 29.9837 19.917 30.0698L19.9985 30.0778C21.7165 30.2457 23.1225 30.3831 24.259 30.3159C25.463 30.2448 26.4854 29.94 27.363 29.1381C28.2503 28.3271 28.6424 27.294 28.8254 26.0527C29.0001 24.8671 29 23.3619 29 21.5038V18.6712C29 16.8594 29 15.4056 28.8578 14.2637C28.7112 13.0861 28.3983 12.0887 27.6572 11.2895C26.9086 10.4821 25.9067 10.1001 24.71 9.87056L24.7079 9.87016C24.8713 9.02636 24.9945 8.04818 24.9998 7.07204C25.0074 5.69228 24.7818 4.11334 23.8865 2.98319C22.6816 1.46242 20.8836 1.62347 19.7338 1.72647L19.6214 1.73647C12.9516 2.32307 8.22577 3.51604 5.56357 4.33425C3.9764 4.82205 3 6.34054 3 7.94754ZM22.3188 4.22517C21.8426 3.62406 21.1626 3.60865 19.7967 3.72878C13.2828 4.30167 8.69541 5.46403 6.15113 6.24599C5.68895 6.38804 5.30327 6.76527 5.1181 7.27006C8.09784 8.03459 13.5463 8.95399 20.0741 9.40633L20.1416 9.411C21.0968 9.47718 21.955 9.53664 22.721 9.60817C22.8761 8.84032 22.9951 7.93972 22.9999 7.06113C23.0067 5.81235 22.7812 4.80876 22.3188 4.22517Z"
        fill="#3E4252" />
    <path
        fill-rule="evenodd"
        clip-rule="evenodd"
        d="M22 17.0002C23.6569 17.0002 25 18.3433 25 20.0002C25 21.657 23.6569 23.0002 22 23.0002C20.3431 23.0002 19 21.657 19 20.0002C19 18.3433 20.3431 17.0002 22 17.0002ZM23 20.0002C23 19.4479 22.5523 19.0002 22 19.0002C21.4477 19.0002 21 19.4479 21 20.0002C21 20.5525 21.4477 21.0002 22 21.0002C22.5523 21.0002 23 20.5525 23 20.0002Z"
        fill="#3E4252" />
    <path
        d="M10.3333 18.6669C10.3333 18.1146 9.88562 17.6669 9.33333 17.6669C8.78105 17.6669 8.33333 18.1146 8.33333 18.6669L8.33333 23.0002H4C3.44772 23.0002 3 23.4479 3 24.0002C3 24.5525 3.44772 25.0002 4 25.0002H8.33333V29.3335C8.33333 29.8858 8.78105 30.3335 9.33333 30.3335C9.88562 30.3335 10.3333 29.8858 10.3333 29.3335V25.0002H14.6667C15.219 25.0002 15.6667 24.5525 15.6667 24.0002C15.6667 23.4479 15.219 23.0002 14.6667 23.0002H10.3333L10.3333 18.6669Z"
        fill="#3E4252" />
</svg>
